<svg width="70" height="70" viewBox="0 0 70 70" fill="none" xmlns="http://www.w3.org/2000/svg">
<g clip-path="url(#clip0_18_126)">
<path d="M42.3019 3.78L35 0L27.6981 3.78L19.5694 5.01375L15.8856 12.3637L10.0363 18.1388L11.375 26.25L10.0363 34.3613L15.8856 40.1362L19.5694 47.4863L27.6981 48.72L35 52.5L42.3019 48.72L50.4306 47.4863L54.1144 40.1362L59.9638 34.3613L58.625 26.25L59.9638 18.1388L54.1144 12.3637L50.4306 5.01375L42.3019 3.78ZM47.5344 8.99937L50.5269 14.9712L55.2781 19.6612L54.1931 26.25L55.2781 32.8387L50.5269 37.5288L47.5344 43.5006L40.9281 44.5025L35 47.5737L29.0719 44.5025L22.4656 43.5006L19.4731 37.5288L14.7219 32.8387L15.8113 26.25L14.7175 19.6612L19.4731 14.9712L22.4656 8.99937L29.0719 7.9975L35 4.92625L40.9325 7.9975L47.5344 8.99937Z" fill="#2A2A2A"/>
<path d="M17.5 51.5988V70L35 65.625L52.5 70V51.5988L43.6713 52.9375L35 57.4263L26.3288 52.9375L17.5 51.5988Z" fill="#2A2A2A"/>
</g>
<defs>
<clipPath id="clip0_18_126">
<rect width="70" height="70" fill="white"/>
</clipPath>
</defs>
</svg>
