<svg width="86" height="86" viewBox="0 0 86 86" fill="none" xmlns="http://www.w3.org/2000/svg">
<path d="M42.2785 23.2304L42.2464 23.209L39.4234 21.3115C37.4855 20.0082 35.1739 19.3759 32.8425 19.5116C30.511 19.6472 28.2883 20.5434 26.5148 22.0627L19.5834 28.0043C19.0993 28.4183 18.4831 28.6456 17.8461 28.6451H9.9714C9.26327 28.6451 8.58414 28.9264 8.08342 29.4272C7.58269 29.9279 7.30139 30.607 7.30139 31.3151V52.782C7.30139 54.2558 8.49755 55.452 9.9714 55.452H17.4047C17.7838 55.4518 18.1587 55.5323 18.5042 55.6882C18.8498 55.8441 19.1583 56.0719 19.409 56.3563L27.7358 65.8259C29.0321 67.2991 30.8241 68.2453 32.7718 68.4848C34.7195 68.7244 36.6873 68.2406 38.302 67.1253L40.737 65.4414L43.3501 66.3314C44.9648 66.879 46.7121 66.897 48.3378 66.3828C49.9635 65.8687 51.3827 64.8492 52.3889 63.4727L54.0621 61.1872L55.2227 61.3438C56.83 61.5604 58.4652 61.2839 59.912 60.551C61.3588 59.818 62.549 58.6632 63.3253 57.2391L63.4997 56.9187H75.8316C76.5397 56.9187 77.2188 56.6374 77.7196 56.1367C78.2203 55.636 78.5016 54.9569 78.5016 54.2487V31.3187C78.5016 30.6106 78.2203 29.9314 77.7196 29.4307C77.2188 28.93 76.5397 28.6487 75.8316 28.6487H67.9604C67.32 28.6489 66.701 28.4189 66.216 28.0008L60.2031 22.8067C57.695 20.6395 54.4704 19.4828 51.1566 19.5618C47.8428 19.6408 44.6769 20.9497 42.2749 23.2339M36.4365 25.7437L38.4372 27.0894L31.4596 34.1062C30.7076 34.8625 30.1142 35.7613 29.7142 36.75C29.3143 37.7386 29.1157 38.7972 29.1303 39.8636C29.1449 40.93 29.3723 41.9828 29.7992 42.9601C30.2261 43.9375 30.8439 44.8198 31.6163 45.5552L31.8583 45.783C34.7419 48.5278 39.1991 48.7414 42.3283 46.2814L49.7296 40.4715L59.1885 49.5673C59.6111 49.9731 59.8885 50.5066 59.9779 51.0856C60.0673 51.6646 59.9638 52.257 59.6834 52.7713L59.5944 52.928L59.5445 53.0205L58.6367 54.683C58.378 55.1571 57.9815 55.5415 57.4998 55.7856C57.018 56.0296 56.4735 56.1219 55.9382 56.0501L53.2006 55.6834C52.7249 55.6194 52.2407 55.6848 51.799 55.8727C51.3573 56.0607 50.9745 56.3642 50.6908 56.7514L48.0777 60.3185C47.7426 60.7773 47.2698 61.1172 46.7281 61.2888C46.1865 61.4604 45.6042 61.4547 45.066 61.2726L41.1856 59.9554C40.7909 59.8211 40.3702 59.7811 39.9572 59.8386C39.5442 59.8961 39.1505 60.0495 38.8075 60.2865L35.2688 62.7322C34.7303 63.1045 34.0737 63.266 33.424 63.1859C32.7742 63.1058 32.1765 62.7898 31.7444 62.2979L23.4176 52.8283C22.6653 51.974 21.7396 51.2899 20.7022 50.8215C19.6647 50.3532 18.5394 50.1113 17.4011 50.112H12.6414V33.9852H17.8426C19.754 33.9856 21.6026 33.3025 23.0544 32.0592L29.9893 26.1175C30.8759 25.3576 31.9872 24.9092 33.1529 24.8411C34.3186 24.7729 35.4745 25.0887 36.4436 25.7402M65.3509 51.5823C65.3638 50.4885 65.1525 49.4036 64.73 48.3946C64.3075 47.3855 63.6829 46.4737 62.8945 45.7154L53.9197 37.0859C54.3225 36.5724 54.5233 35.9291 54.4841 35.2776C54.4448 34.6261 54.1684 34.0116 53.7069 33.5501C53.2454 33.0886 52.6308 32.8121 51.9793 32.7729C51.3278 32.7337 50.6846 32.9344 50.171 33.3372L48.3697 34.7506L48.1561 34.9179L39.0353 42.0842C38.5304 42.4809 37.8994 42.6824 37.2579 42.6517C36.6165 42.6209 36.0076 42.3601 35.5429 41.9169L35.3009 41.6854C35.0433 41.4404 34.8373 41.1464 34.6949 40.8206C34.5525 40.4949 34.4766 40.144 34.4716 39.7885C34.4667 39.433 34.5327 39.0802 34.6659 38.7506C34.7992 38.421 34.9969 38.1213 35.2475 37.8691L45.8029 27.2603C47.2324 25.8232 49.1535 24.9814 51.1791 24.9048C53.2046 24.8282 55.1839 25.5223 56.7179 26.8473L62.7236 32.0378C64.1798 33.2952 66.04 33.9865 67.964 33.9852H73.1616V51.5823H65.3509Z" fill="#2A2A2A"/>
</svg>
