<svg width="70" height="70" viewBox="0 0 70 70" fill="none" xmlns="http://www.w3.org/2000/svg">
<g clip-path="url(#clip0_18_124)">
<path d="M35.8138 4.86941C35.2914 4.66009 34.7086 4.66009 34.1862 4.86941L8.07625 15.3125L18.5938 19.5169L45.5175 8.75004L35.8138 4.86941ZM51.4062 11.1082L24.4825 21.875L35 26.0794L61.9238 15.3125L51.4062 11.1082ZM65.625 18.5457L37.1875 29.9207V64.5794L65.625 53.2044V18.5457ZM32.8125 64.5838V29.9163L4.375 18.5457V53.2088L32.8125 64.5838ZM32.5631 0.805037C34.1275 0.179408 35.8725 0.179408 37.4369 0.805037L68.6263 13.2825C69.0318 13.445 69.3793 13.7253 69.6242 14.0871C69.869 14.4489 69.9999 14.8757 70 15.3125V53.2088C69.9994 54.083 69.737 54.937 69.2465 55.6607C68.756 56.3843 68.06 56.9445 67.2481 57.2688L35.8138 69.8425C35.2914 70.0519 34.7086 70.0519 34.1862 69.8425L2.75625 57.2688C1.9436 56.9451 1.24662 56.3853 0.755309 55.6616C0.263995 54.9379 0.000902691 54.0835 0 53.2088L0 15.3125C0.000101675 14.8757 0.131004 14.4489 0.375843 14.0871C0.620682 13.7253 0.968243 13.445 1.37375 13.2825L32.5631 0.805037Z" fill="#2A2A2A"/>
</g>
<defs>
<clipPath id="clip0_18_124">
<rect width="70" height="70" fill="white"/>
</clipPath>
</defs>
</svg>
